<svg width="198" height="203" viewBox="0 0 198 203" fill="none" xmlns="http://www.w3.org/2000/svg">
<path d="M69.159 156.87C65.1663 156.705 63.0267 154.202 62.7103 149.364L62.0022 135.978C61.7009 131.125 63.7048 128.788 68.029 128.969L147.326 132.15C151.319 132.316 153.217 134.803 153.022 139.641L152.494 152.966C152.298 157.79 150.038 160.126 145.714 159.945L69.159 156.87Z" fill="currentColor"/>
<path d="M70.2435 74.8098C66.2507 74.644 64.1112 72.1418 63.7948 67.3032L63.0867 53.9179C62.7853 49.0642 64.7892 46.7278 69.1134 46.9087L148.411 50.0892C152.403 50.255 154.302 52.7421 154.106 57.5808L153.579 70.9058C153.383 75.7293 151.123 78.0657 146.799 77.8848L70.2435 74.8098Z" fill="currentColor"/>
<path d="M169.671 17.033C170.032 8.15473 172.639 3.2709 177.505 2.35141L190.945 0.120524C195.812 -0.798962 198.057 3.54222 197.68 13.1591L190.614 189.459C190.252 198.338 187.661 202.664 182.839 202.468L169.52 201.94C164.698 201.744 162.469 196.845 162.86 187.229L169.686 17.018L169.671 17.033Z" fill="currentColor"/>
<path d="M60.5557 115.479C56.0809 115.298 53.6551 112.781 53.2784 107.927L52.4045 94.5415C52.0429 89.6878 54.2728 87.3665 59.1394 87.5474L148.23 91.1198C152.705 91.3007 154.86 93.8029 154.664 98.6415L154.136 111.967C153.941 116.79 151.409 119.111 146.558 118.915L60.5557 115.464V115.479Z" fill="currentColor"/>
<path d="M12.5222 195.655C5.89279 195.383 2.26166 192.821 1.61378 187.967L0.0769555 174.552C-0.555856 169.698 2.71367 167.407 9.9006 167.693L141.721 172.984C148.351 173.255 151.575 175.803 151.379 180.626L150.852 193.951C150.656 198.775 146.965 201.051 139.778 200.765L12.5222 195.655Z" fill="currentColor"/>
</svg>
